<svg id="Template_kisspng-logo-brand-font-booster-bricks-lego-booster-bricks-club-5b6d2e551fd4f5.0044834315338819411304.jpg" data-name="Template kisspng-logo-brand-font-booster-bricks-lego-booster-bricks-club-5b6d2e551fd4f5.0044834315338819411304.jpg" xmlns="http://www.w3.org/2000/svg" viewBox="0 0 388.08 179"><defs><style>.cls-1{fill:#ed1c24;}.cls-2{font-size:90px;font-family:TimesNewRomanPS-BoldMT, Times New Roman;font-weight:700;}</style></defs><title>Bricks4Nav</title><path class="cls-1" d="M71,333.5a9.3,9.3,0,0,1-9.5-9.5V210.39a10.22,10.22,0,0,1,2-7.61A9.23,9.23,0,0,1,71,199.5h29.5v-24a8.81,8.81,0,0,1,1.69-6.59c1.21-1.54,3.55-3.39,7.81-3.39h53c3.67,0,9.5,2.85,9.5,10.5v23.5h41V175c0-3.67,2.85-9.5,10.5-9.5h52c3.67,0,9.5,2.85,9.5,10.5v24.5h39V176.39a10.22,10.22,0,0,1,2-7.61A9.23,9.23,0,0,1,334,165.5h52c3.67,0,9.5,2.85,9.5,10.5v24.5H430c4.12,0,8.5,3.33,8.5,9.5V324a9.3,9.3,0,0,1-9.5,9.5Z" transform="translate(-55.92 -160)"/><path d="M386,171s4,0,4,5v30h40s3,0,3,4V324s0,4-4,4H71s-4,0-4-4V210s-1-5,4-5h35V175s-1-4,4-4h53s4,0,4,5v29h52V175s0-4,5-4h52s4,0,4,5v30h50V176s-1-5,4-5h52m0-11H334a14.83,14.83,0,0,0-11.74,5.29,15.55,15.55,0,0,0-3.26,11.4V195H291V176c0-10-7.63-16-15-16H224c-10,0-16,7.63-16,15v19H178V176c0-10-7.63-16-15-16H110c-6.82,0-10.54,3.45-12.14,5.51A14.11,14.11,0,0,0,95,175.75V194H71a14.83,14.83,0,0,0-11.74,5.29A15.55,15.55,0,0,0,56,210.69V324a14.86,14.86,0,0,0,15,15H429a14.86,14.86,0,0,0,15-15V210c0-9.39-7.12-15-14-15H401V176c0-10-7.63-16-15-16Z" transform="translate(-55.92 -160)"/><text class="cls-2" transform="translate(51.92 133.95)">HOME</text></svg>